<svg width="95" height="107" viewBox="0 0 95 107" fill="none" xmlns="http://www.w3.org/2000/svg">
<path d="M47.5 0L58.1644 36.729L92.6752 36.729L64.7554 59.4288L75.4198 96.1579L47.5 73.4581L19.5802 96.1579L30.2446 59.4288L2.32481 36.729L36.8356 36.729L47.5 0Z" fill="#7ED1FF" fill-opacity="0.74"/>
<path d="M47.5 0L58.1644 36.729L92.6752 36.729L64.7554 59.4288L75.4198 96.1579L47.5 73.4581L19.5802 96.1579L30.2446 59.4288L2.32481 36.729L36.8356 36.729L47.5 0Z" fill="#7ED1FF" fill-opacity="0.74"/>
<path d="M53 12L62.4296 44.4762H92.9444L68.2574 64.5476L77.687 97.0238L53 76.9524L28.313 97.0238L37.7426 64.5476L13.0556 44.4762H43.5704L53 12Z" fill="#7ED1FF" fill-opacity="0.74"/>
<path d="M53 12L62.4296 44.4762H92.9444L68.2574 64.5476L77.687 97.0238L53 76.9524L28.313 97.0238L37.7426 64.5476L13.0556 44.4762H43.5704L53 12Z" fill="#F6FF94"/>
</svg>
