<svg width="117" height="130" viewBox="0 0 117 130" fill="none" xmlns="http://www.w3.org/2000/svg">
<path d="M58.0851 0L71.126 44.9139H113.327L79.1858 72.6722L92.2267 117.586L58.0851 89.8278L23.9435 117.586L36.9845 72.6722L2.84289 44.9139H45.0442L58.0851 0Z" fill="#7ED1FF" fill-opacity="0.74"/>
<path d="M58.0851 0L71.126 44.9139H113.327L79.1858 72.6722L92.2267 117.586L58.0851 89.8278L23.9435 117.586L36.9845 72.6722L2.84289 44.9139H45.0442L58.0851 0Z" fill="#05FF00" fill-opacity="0.74"/>
<path d="M58 18L67.4296 50.4762H97.9444L73.2574 70.5476L82.687 103.024L58 82.9524L33.313 103.024L42.7426 70.5476L18.0556 50.4762H48.5704L58 18Z" fill="#7ED1FF" fill-opacity="0.74"/>
<path d="M58 18L67.4296 50.4762H97.9444L73.2574 70.5476L82.687 103.024L58 82.9524L33.313 103.024L42.7426 70.5476L18.0556 50.4762H48.5704L58 18Z" fill="#F6FF94"/>
</svg>
