<svg width="117" height="130" viewBox="0 0 117 130" fill="none" xmlns="http://www.w3.org/2000/svg">
<path d="M58.0851 0L71.126 44.9139H113.327L79.1858 72.6722L92.2267 117.586L58.0851 89.8278L23.9435 117.586L36.9845 72.6722L2.84289 44.9139H45.0442L58.0851 0Z" fill="#7ED1FF" fill-opacity="0.74"/>
<path d="M58.0851 0L71.126 44.9139H113.327L79.1858 72.6722L92.2267 117.586L58.0851 89.8278L23.9435 117.586L36.9845 72.6722L2.84289 44.9139H45.0442L58.0851 0Z" fill="#57C3FF" fill-opacity="0.74"/>
<path d="M64 27L73.4296 59.4762H103.944L79.2574 79.5476L88.687 112.024L64 91.9524L39.313 112.024L48.7426 79.5476L24.0556 59.4762H54.5704L64 27Z" fill="#7ED1FF" fill-opacity="0.74"/>
<path d="M64 27L73.4296 59.4762H103.944L79.2574 79.5476L88.687 112.024L64 91.9524L39.313 112.024L48.7426 79.5476L24.0556 59.4762H54.5704L64 27Z" fill="#05FF00" fill-opacity="0.74"/>
</svg>
