<svg width="164" height="122" viewBox="0 0 164 122" fill="none" xmlns="http://www.w3.org/2000/svg">
<path d="M65.3192 10.1146C77.4324 22.2285 73.3756 42.3992 73.3756 42.3992H49.1492L120 113.311L111.944 121.368L41.0356 50.5132V74.741C41.0356 74.741 20.866 78.798 8.75279 66.6841C-3.38326 54.5702 0.639234 34.3424 0.639234 34.3424H24.9228L20.866 30.2854L28.9224 22.2285L32.9792 26.2855V2.00064C32.9792 2.00064 53.206 -1.99922 65.3192 10.1146Z" fill="#CE00C6"/>
<path d="M154.242 66.2875C142.023 78.2946 121.888 74.0619 121.888 74.0619L122.099 49.8364L50.572 120.066L42.5857 111.939L114.057 41.6524L89.8297 41.441C89.8297 41.441 85.9489 21.2367 98.168 9.22966C110.387 -2.80022 130.579 1.39864 130.579 1.39864L130.367 25.6813L134.46 21.66L142.446 29.7865L138.354 33.8077L162.638 34.0196C162.638 34.0196 166.461 54.2805 154.242 66.2875Z" fill="#7ED1FF"/>
</svg>
